:SAMPLES-PER-SECOND 30
:FULLY-SPECIFIED
:DEGREES
521
root  -13.1604 36.8515 25.7646 176.312 57.2115 177.457
RightUpLeg  -18.544 -4.07341 -21.131
RightLeg  25.2666 -9.74289 -5.14012
RightFoot  2.74618 -3.18882 25.4781
RightToes  -1.74624e-010 0 -3.6325e-017
Spine  18.2488 -4.84821 -6.20347
Spine1  11.0984 -6.28523 0.2352
HEad  -25.7206 50.8369 -20.4599
LeftShoulder1  0.14127 2.77444 -12.2201
LeftArm  6.52484 3.09142 -42.596
LeftForeArm  78.4045 -79.5824 -84.5777
LeftHand  -1.71086 -3.56204 22.2242
RightShoulder  0.320611 -1.67568 10.4599
RightArm  -6.15329 -28.7026 52.1216
RightForeArm  46.4919 77.4528 57.3872
RightHand  -1.85883 5.13207 -20.5907
LeftUpLeg  -12.9979 -10.0285 15.0079
LeftLeg  44.7391 6.26473 7.03596
LeftFoot  -9.82002 0.300036 -18.2044
LeftToes  -5.82109e-011 1.10366e-010 -8.03124e-011
522
root  -12.6529 36.3779 26.2754 175.298 59.6663 177.889
RightUpLeg  -20.4199 -6.87057 -19.6649
RightLeg  30.2988 -3.71368 -2.59205
RightFoot  -1.91344 -2.1604 25.4962
RightToes  -1.74624e-010 0 -3.6325e-017
Spine  18.8899 -4.38591 -4.51425
Spine1  11.7886 -5.12236 -1.25144
HEad  -28.6799 50.6422 -23.3657
LeftShoulder1  0.285163 2.1069 -13.3178
LeftArm  4.85783 4.98604 -42.5459
LeftForeArm  71.277 -79.3535 -77.807
LeftHand  -2.01914 -3.58191 26.0018
RightShoulder  0.31197 -1.87919 12.3007
RightArm  -10.6401 -24.4247 52.5384
RightForeArm  31.1856 74.6595 43.6246
RightHand  -2.14098 5.58316 -22.6306
LeftUpLeg  -12.956 -9.18505 15.1244
LeftLeg  50.0927 8.07084 10.647
LeftFoot  -8.8738 0.346782 -13.6151
LeftToes  -5.82109e-011 1.10366e-010 -8.03124e-011
523
root  -12.3333 36.1258 26.546 174.789 63.7417 178.697
RightUpLeg  -22.3384 -6.1579 -17.8552
RightLeg  33.5681 -0.505818 -0.634775
RightFoot  -3.7366 -1.56813 22.9851
RightToes  -1.74624e-010 0 -3.6325e-017
Spine  19.1159 -3.63501 -2.58631
Spine1  13.7206 -3.5373 -2.77056
HEad  -32.3534 50.7007 -27.4512
LeftShoulder1  0.482116 1.33615 -15.3903
LeftArm  1.53026 6.46973 -45.6337
LeftForeArm  50.3255 -77.975 -61.9709
LeftHand  -2.4608 -3.27555 32.3762
RightShoulder  0.373335 -1.68517 13.7923
RightArm  -15.9611 -18.3973 54.3449
RightForeArm  16.9509 70.5504 32.9934
RightHand  -2.66261 6.45779 -25.9519
LeftUpLeg  -12.1121 -7.79797 14.7399
LeftLeg  54.09 8.50426 12.8425
LeftFoot  -8.34851 0.31683 -10.1028
LeftToes  -5.82109e-011 1.10366e-010 -8.03124e-011
524
root  -12.1246 36.1389 26.5775 174.821 67.1659 179.207
RightUpLeg  -22.9979 -4.46006 -16.6932
RightLeg  33.5694 0.521844 0.123375
RightFoot  -3.57274 -1.55667 22.2968
RightToes  -1.74624e-010 0 -3.6325e-017
Spine  19.2924 -3.17089 -1.61139
Spine1  14.7199 -2.75514 -3.00952
HEad  -34.6027 51.758 -30.4168
LeftShoulder1  0.634663 0.890646 -17.6555
LeftArm  -1.56019 7.93352 -51.053
LeftForeArm  29.3625 -75.769 -50.259
LeftHand  -3.05059 -3.00316 40.7461
RightShoulder  0.444812 -1.37122 14.1323
RightArm  -19.2843 -14.1304 57.1889
RightForeArm  10.2658 67.0676 27.1638
RightHand  -3.08168 7.2492 -28.0877
LeftUpLeg  -11.8368 -6.44043 13.7484
LeftLeg  55.9582 7.31744 11.9863
LeftFoot  -8.97045 0.246111 -9.33897
LeftToes  -5.82109e-011 1.10366e-010 -8.03124e-011
525
root  -11.9877 36.3685 26.4755 175.346 68.712 179.107
RightUpLeg  -22.7159 -3.97047 -16.3749
RightLeg  31.294 0.760895 0.260348
RightFoot  -2.91448 -1.71708 22.7558
RightToes  -1.74624e-010 0 -3.6325e-017
Spine  19.2626 -3.23475 -1.61329
Spine1  14.2019 -2.99301 -2.427
HEad  -35.546 53.4515 -31.5205
LeftShoulder1  0.689097 0.840296 -19.3462
LeftArm  -2.52819 9.57692 -56.6474
LeftForeArm  18.3504 -74.5221 -46.4062
LeftHand  -3.56458 -3.09008 46.651
RightShoulder  0.440946 -1.39019 14.1371
RightArm  -18.6829 -13.7475 59.5348
RightForeArm  12.4445 65.8689 25.111
RightHand  -3.06306 7.52054 -27.338
LeftUpLeg  -12.8797 -5.42534 12.4187
LeftLeg  55.6761 5.38722 8.96337
LeftFoot  -10.5373 0.134509 -10.3031
LeftToes  -5.82109e-011 1.10366e-010 -8.03124e-011
526
root  -11.9071 36.7391 26.3215 176.496 69.0867 179.086
RightUpLeg  -22.0358 -4.89111 -16.2083
RightLeg  27.8765 1.15855 0.431703
RightFoot  -1.61668 -1.97289 22.7849
RightToes  -1.74624e-010 0 -3.6325e-017
Spine  18.656 -3.50855 -1.84395
Spine1  13.5912 -3.48154 -1.90417
HEad  -36.4107 54.687 -31.667
LeftShoulder1  0.683278 0.926822 -20.0243
LeftArm  -0.841183 11.1258 -60.7357
LeftForeArm  19.5935 -74.7351 -47.2217
LeftHand  -3.4939 -3.24312 44.9769
RightShoulder  0.397229 -1.62905 14.5268
RightArm  -15.3822 -16.5187 60.5493
RightForeArm  19.332 66.2574 24.7055
RightHand  -2.8224 7.79098 -24.8082
LeftUpLeg  -14.2343 -4.30717 11.3142
LeftLeg  53.414 4.23083 6.59208
LeftFoot  -12.0925 -0.00315138 -11.4963
LeftToes  -5.82109e-011 1.10366e-010 -8.03124e-011
527
root  -11.8545 37.1581 26.1479 177.45 69.1327 179.114
RightUpLeg  -20.6815 -6.20057 -16.0758
RightLeg  23.6692 1.61868 0.563337
RightFoot  0.379885 -2.39957 23.0927
RightToes  -1.74624e-010 0 -3.6325e-017
Spine  17.7464 -3.54905 -2.3381
Spine1  13.6139 -3.72507 -1.51156
HEad  -37.1003 55.0082 -31.5109
LeftShoulder1  0.642228 1.04976 -19.6521
LeftArm  2.09084 11.9457 -62.7318
LeftForeArm  29.5424 -75.8899 -51.1682
LeftHand  -2.53544 -2.89809 34.3242
RightShoulder  0.401185 -1.64207 14.927
RightArm  -12.0994 -20.7004 60.9827
RightForeArm  23.5812 65.8398 23.5461
RightHand  -2.75353 8.33882 -23.2958
LeftUpLeg  -14.6069 -2.53155 10.5135
LeftLeg  49.5065 5.0073 6.6747
LeftFoot  -13.0005 -0.106476 -12.6985
LeftToes  -5.82109e-011 1.10366e-010 -8.03124e-011
528
root  -11.8195 37.5208 25.973 177.469 68.4013 178.62
RightUpLeg  -18.4817 -7.23167 -16.4421
RightLeg  19.2569 1.24173 0.260711
RightFoot  2.14722 -2.89136 24.238
RightToes  -1.74624e-010 0 -3.6325e-017
Spine  17.1586 -3.35063 -3.71618
Spine1  13.3711 -4.07228 -0.479932
HEad  -36.4791 54.7975 -30.79
LeftShoulder1  0.517476 1.44812 -18.5549
LeftArm  4.65224 11.673 -62.9001
LeftForeArm  43.8502 -77.4864 -59.419
LeftHand  -1.14184 -1.87482 17.9037
RightShoulder  0.470567 -1.32009 14.8962
RightArm  -10.0709 -25.1653 61.6159
RightForeArm  20.4312 62.7391 20.4369
RightHand  -2.79515 8.40544 -23.5295
LeftUpLeg  -14.3192 0.11519 9.73165
LeftLeg  45.0181 7.58639 8.45194
LeftFoot  -12.9947 -0.125158 -14.0546
LeftToes  -5.82109e-011 1.10366e-010 -8.03124e-011
529
root  -11.8302 37.764 25.7882 177.816 66.0363 178.552
RightUpLeg  -16.044 -8.39748 -17.0299
RightLeg  15.7538 -0.157247 -0.454859
RightFoot  3.18196 -3.24145 25.2343
RightToes  -1.74624e-010 0 -3.6325e-017
Spine  16.8836 -3.26952 -5.61937
Spine1  12.4281 -4.97054 1.74254
HEad  -34.4659 54.3651 -29.3944
LeftShoulder1  0.312499 2.19317 -17.1125
LeftArm  6.53485 10.3815 -62.1197
LeftForeArm  62.2117 -78.9368 -73.41
LeftHand  -0.159422 -0.971184 3.74374
RightShoulder  0.566033 -0.867426 14.7624
RightArm  -9.10171 -29.3756 61.9078
RightForeArm  11.7171 57.4077 16.821
RightHand  -2.69167 7.59549 -24.0409
LeftUpLeg  -14.6786 3.53682 9.03166
LeftLeg  41.4807 10.4564 10.1527
LeftFoot  -12.3863 -0.0620214 -14.7399
LeftToes  -5.82109e-011 1.10366e-010 -8.03124e-011
530
root  -11.8946 37.8553 25.5582 179.693 62.1331 -179.915
RightUpLeg  -13.9236 -10.305 -17.2004
RightLeg  13.9093 -1.87332 -1.14012
RightFoot  3.58126 -3.41238 25.8328
RightToes  -1.74624e-010 0 -3.6325e-017
Spine  16.4438 -3.43559 -6.97695
Spine1  11.599 -6.23022 4.81212
HEad  -31.9274 53.5313 -27.5111
LeftShoulder1  0.112086 3.00162 -15.4693
LeftArm  7.9835 8.32139 -61.2811
LeftForeArm  85.2024 -79.6613 -90.6181
LeftHand  -0.0353826 -1.88475 0.537574
RightShoulder  0.667139 -0.418885 14.9089
RightArm  -9.11009 -33.1643 61.1315
RightForeArm  0.631146 51.7979 14.2835
RightHand  -2.48729 6.49399 -24.2542
LeftUpLeg  -16.0376 6.44783 8.74578
LeftLeg  39.8928 12.0826 11.0062
LeftFoot  -12.3322 -0.0474734 -14.0555
LeftToes  -5.82109e-011 1.10366e-010 -8.03124e-011
531
root  -11.9766 37.7676 25.2828 -178.238 57.5163 -177.868
RightUpLeg  -12.1624 -12.3618 -17.359
RightLeg  13.9557 -3.93182 -1.51934
RightFoot  2.93238 -3.41493 26.9846
RightToes  -1.74624e-010 0 -3.6325e-017
Spine  15.8617 -3.52093 -7.8978
Spine1  11.3066 -7.35442 8.02732
HEad  -29.3346 52.0651 -25.0959
LeftShoulder1  -0.0624513 3.80742 -13.6996
LeftArm  8.80204 5.76789 -60.6238
LeftForeArm  108.739 -79.4897 -107.572
LeftHand  -0.651419 -3.76731 8.37549
RightShoulder  0.779967 0.0504448 15.2433
RightArm  -10.4467 -36.8167 59.4653
RightForeArm  -11.578 47.2 12.8849
RightHand  -2.25313 5.37694 -24.2331
LeftUpLeg  -17.5854 6.62649 8.9257
LeftLeg  39.9965 11.976 10.9455
LeftFoot  -13.655 -0.179548 -12.9079
LeftToes  -5.82109e-011 1.10366e-010 -8.03124e-011
532
root  -12.0392 37.5152 25.0319 -177.577 52.7456 -177.032
RightUpLeg  -11.1638 -14.1448 -18.0805
RightLeg  16.567 -6.12772 -2.25787
RightFoot  0.833904 -3.08282 28.4046
RightToes  -1.74624e-010 0 -3.6325e-017
Spine  15.6949 -3.14051 -9.74092
Spine1  10.982 -8.13697 11.2203
HEad  -27.0581 49.9972 -22.2441
LeftShoulder1  -0.250223 4.7905 -12.2682
LeftArm  8.55745 3.18614 -59.4998
LeftForeArm  126.695 -77.9651 -124.332
LeftHand  -1.4825 -4.23571 18.156
RightShoulder  0.889752 0.47876 15.6679
RightArm  -12.9025 -40.6119 57.5538
RightForeArm  -21.908 43.8905 12.0775
RightHand  -1.96238 4.20528 -23.6862
LeftUpLeg  -18.8918 4.02855 9.12225
LeftLeg  40.7987 10.215 9.69897
LeftFoot  -15.9367 -0.408126 -12.4709
LeftToes  -5.82109e-011 1.10366e-010 -8.03124e-011
533
root  -12.0482 37.1622 24.8969 -178.071 47.586 -177.628
RightUpLeg  -11.4416 -14.7144 -19.3999
RightLeg  22.3664 -8.97355 -4.27508
RightFoot  -1.70398 -2.48417 28.7276
RightToes  -1.74624e-010 0 -3.6325e-017
Spine  16.1069 -2.31835 -13.1427
Spine1  10.4292 -8.75397 14.5471
HEad  -25.9965 47.4129 -19.397
LeftShoulder1  -0.408244 5.64361 -11.8449
LeftArm  7.02346 1.25075 -56.8565
LeftForeArm  134.777 -74.3742 -139.366
LeftHand  -2.03086 -3.96495 25.1654
RightShoulder  0.953018 0.660487 16.2662
RightArm  -15.7453 -44.1913 56.0655
RightForeArm  -26.9913 42.0746 11.6177
RightHand  -1.78063 3.50171 -23.2127
LeftUpLeg  -20.657 1.0854 8.88699
LeftLeg  41.9598 7.16191 7.2431
LeftFoot  -18.0065 -0.618963 -12.444
LeftToes  -5.82109e-011 1.10366e-010 -8.03124e-011
